<svg width="121" height="40" viewBox="0 0 121 40" fill="none" xmlns="http://www.w3.org/2000/svg">
<g id="Frame" clip-path="url(#clip0_1141_875)">
<g id="Group">
<path id="Vector" d="M0.150574 6.8624V38.2476H116.351L119.816 34.7784H3.59477L3.60774 34.7649V3.33508L0.150574 6.8624Z" fill="#E31D19"/>
</g>
<g id="Group_2">
<path id="Vector_2" d="M10.5317 3.33512H19.394C20.4982 3.33512 21.5247 3.46439 22.4734 3.71907C23.4214 3.97568 24.2392 4.35382 24.9229 4.85412C25.6089 5.35657 26.1648 6.01519 26.5442 6.77517C26.9395 7.55536 27.1391 8.4687 27.1391 9.51649C27.1391 10.9379 26.7302 12.0962 25.9143 12.9914C25.0978 13.8886 24.0416 14.546 22.7442 14.9655V15.0353C23.4966 15.0775 24.2322 15.2736 24.9054 15.6112C25.5655 15.9407 26.1578 16.3906 26.6518 16.9376C27.1521 17.4982 27.5485 18.143 27.8227 18.8419C28.1118 19.5639 28.255 20.3441 28.255 21.1818C28.255 22.3 28.021 23.2838 27.5532 24.1332C27.0821 24.9855 26.4231 25.7199 25.626 26.2811C24.8082 26.8629 23.8601 27.3063 22.7792 27.6088C21.699 27.9113 20.5332 28.0619 19.2858 28.0619H10.5311V3.33512H10.5317ZM13.9902 13.6036H18.7091C19.3571 13.6036 19.9694 13.5389 20.5462 13.411C21.1229 13.283 21.6271 13.0684 22.0593 12.7646C22.4879 12.4666 22.8396 12.0717 23.0857 11.6121C23.3385 11.1473 23.4642 10.5766 23.4642 9.90173C23.4642 8.92311 23.1402 8.07376 22.4922 7.3511C21.8429 6.63038 20.8222 6.26841 19.429 6.26841H13.9902V13.6036ZM13.9902 25.1286H19.0693C19.5975 25.1286 20.18 25.0769 20.817 24.9709C21.4439 24.8694 22.0475 24.6566 22.5991 24.3426C23.1555 24.0253 23.6355 23.5902 24.0053 23.0679C24.3876 22.5334 24.5814 21.823 24.5814 20.9374C24.5814 19.4702 24.0889 18.3713 23.1039 17.637C22.1189 16.9034 20.7859 16.5362 19.105 16.5362H13.9902V25.128V25.1286ZM45.5699 28.0625H42.3273V25.5126H42.256C41.8471 26.3981 41.1388 27.1143 40.1305 27.6611C39.1215 28.208 37.9571 28.4808 36.6357 28.4808C35.8285 28.4862 35.0256 28.3627 34.2575 28.1149C33.5297 27.8807 32.8606 27.4937 32.2953 26.9798C31.7303 26.4679 31.2799 25.8099 30.9436 25.0071C30.6066 24.2036 30.4401 23.2554 30.4401 22.1604V11.508H33.6821V21.2865C33.6821 22.055 33.7903 22.7131 34.0061 23.2599C34.2225 23.8074 34.5103 24.2495 34.8712 24.5876C35.2251 24.9214 35.6496 25.1716 36.1134 25.3199C36.5845 25.4715 37.0765 25.5483 37.5715 25.5475C38.2454 25.5475 38.8701 25.444 39.4455 25.234C40.0213 25.0251 40.5397 24.6838 40.9587 24.2379C41.3909 23.7841 41.7272 23.2076 41.9676 22.5101C42.2067 21.8107 42.3273 20.9846 42.3273 20.0293V11.5067H45.5693V28.0619L45.5699 28.0625ZM48.1406 11.5073H51.3826V14.0573H51.4539C51.6734 13.6107 51.9657 13.2035 52.319 12.8525C52.6784 12.4918 53.0844 12.1805 53.5263 11.9269C53.9854 11.6646 54.4751 11.4595 54.9843 11.316C55.4996 11.1665 56.0334 11.0901 56.57 11.0891C57.0981 11.0891 57.5783 11.1589 58.0105 11.2986L57.866 14.6856C57.6047 14.6163 57.3405 14.5581 57.0742 14.5111C56.8125 14.465 56.5473 14.4416 56.2816 14.4413C54.6966 14.4413 53.4835 14.8724 52.643 15.7334C51.8025 16.5957 51.3826 17.9343 51.3826 19.7507V28.0625H48.1406V11.5067V11.5073ZM63.415 14.2312H59.7407V11.5073H63.415V7.80551C63.415 5.59358 63.8517 3.94659 64.7291 2.86325C65.6066 1.78056 67.1119 1.23889 69.251 1.23889C69.6107 1.23889 69.9884 1.25182 70.385 1.27444C70.7803 1.29771 71.208 1.36752 71.6642 1.48387L71.3046 4.27884C71.0128 4.16745 70.7106 4.08517 70.4025 4.03321C70.0932 3.98512 69.7805 3.96177 69.4674 3.9634C68.8667 3.9634 68.3866 4.05066 68.0269 4.22519C67.6782 4.38958 67.384 4.65024 67.1793 4.97628C66.9752 5.30271 66.8417 5.69248 66.7827 6.14624C66.7192 6.66196 66.6889 7.18121 66.692 7.70079V11.508H70.5477V14.2312H66.6563V28.0625H63.415V14.2312ZM71.3272 19.7849C71.3272 18.5743 71.5605 17.445 72.029 16.3979C72.4885 15.3633 73.1427 14.4264 73.9562 13.6378C74.7727 12.8467 75.7337 12.2235 76.838 11.7698C77.9422 11.3154 79.1319 11.0885 80.4046 11.0885C81.6767 11.0885 82.8671 11.3154 83.9713 11.7698C85.0755 12.2235 86.0365 12.8467 86.853 13.6378C87.6669 14.4261 88.3211 15.3632 88.7802 16.3979C89.2487 17.445 89.4827 18.5743 89.4827 19.7849C89.4827 20.9963 89.2487 22.1313 88.7802 23.1894C88.3271 24.2275 87.672 25.1656 86.853 25.9495C86.0365 26.7284 85.0755 27.3463 83.9713 27.8008C82.8665 28.2545 81.6773 28.4814 80.4046 28.4814C79.1319 28.4814 77.9422 28.2552 76.838 27.8008C75.7337 27.3463 74.7727 26.7278 73.9562 25.9502C73.1375 25.166 72.4825 24.228 72.029 23.1901C71.5605 22.1313 71.3272 20.9963 71.3272 19.7849ZM74.7857 19.7849C74.7857 20.624 74.9173 21.397 75.181 22.1081C75.4447 22.8184 75.8173 23.4228 76.2988 23.9237C76.7784 24.4247 77.3667 24.8203 78.0634 25.1112C78.76 25.402 79.5402 25.5481 80.4046 25.5481C81.2691 25.5481 82.0506 25.4027 82.7459 25.1112C83.4425 24.8203 84.0309 24.4247 84.5124 23.9237C84.9919 23.4228 85.3645 22.8184 85.6283 22.1081C85.892 21.397 86.0242 20.624 86.0242 19.7849C86.0242 18.9466 85.892 18.1729 85.6289 17.4618C85.3646 16.7528 84.9919 16.1471 84.5124 15.6455C84.0309 15.1458 83.4425 14.7509 82.7459 14.4581C82.0499 14.1672 81.2691 14.0224 80.4046 14.0224C79.5402 14.0224 78.76 14.1679 78.0634 14.4581C77.3667 14.7509 76.7784 15.1458 76.2988 15.6461C75.8173 16.1471 75.4447 16.7528 75.1816 17.4625C74.9173 18.1735 74.7857 18.9466 74.7857 19.7849ZM91.6218 11.5073H94.8632V14.0573H94.9344C95.1545 13.6108 95.447 13.2037 95.8002 12.8525C96.1594 12.4916 96.5654 12.1803 97.0074 11.9269C97.4666 11.6646 97.9563 11.4595 98.4655 11.316C98.9802 11.1663 99.5137 11.0899 100.05 11.0891C100.578 11.0891 101.059 11.1589 101.492 11.2986L101.347 14.6856C101.086 14.6163 100.822 14.5581 100.555 14.5111C100.294 14.465 100.029 14.4416 99.7628 14.4413C98.1777 14.4413 96.9647 14.8724 96.1242 15.7334C95.2824 16.5957 94.8632 17.9343 94.8632 19.7507V28.0625H91.6218V11.5067V11.5073ZM119.81 28.0625H116.568V25.6871H116.497C115.871 26.5726 115.011 27.2591 113.921 27.7484C112.827 28.2371 111.704 28.4808 110.552 28.4808C109.23 28.4808 108.035 28.261 106.967 27.8176C105.899 27.3761 104.986 26.7575 104.23 25.967C103.47 25.1712 102.876 24.2331 102.482 23.2069C102.074 22.1598 101.869 21.0195 101.869 19.7849C101.869 18.551 102.074 17.405 102.482 16.3442C102.89 15.2855 103.473 14.3663 104.23 13.5861C104.986 12.8059 105.899 12.1951 106.967 11.7523C108.035 11.3102 109.231 11.0891 110.552 11.0891C111.776 11.0891 112.929 11.3393 114.009 11.8389C115.09 12.3412 115.918 13.0218 116.497 13.8828H116.568V3.33512H119.81V28.0625ZM110.948 25.5475C111.812 25.5475 112.592 25.402 113.289 25.1112C113.985 24.8203 114.573 24.4247 115.055 23.9237C115.534 23.4234 115.907 22.8184 116.171 22.1074C116.434 21.3977 116.568 20.624 116.568 19.7849C116.568 18.9466 116.434 18.1735 116.171 17.4625C115.907 16.7521 115.534 16.1477 115.055 15.6461C114.573 15.1458 113.985 14.7503 113.289 14.4587C112.592 14.1679 111.811 14.0224 110.948 14.0224C110.082 14.0224 109.304 14.1679 108.606 14.4587C107.908 14.7496 107.321 15.1458 106.84 15.6461C106.36 16.1477 105.988 16.7521 105.724 17.4625C105.459 18.1735 105.327 18.9466 105.327 19.7849C105.327 20.624 105.459 21.3977 105.724 22.1074C105.988 22.8184 106.36 23.4234 106.84 23.9237C107.321 24.4247 107.908 24.8209 108.606 25.1112C109.304 25.402 110.083 25.5475 110.948 25.5475Z" fill="black"/>
</g>
</g>
<defs>
<clipPath id="clip0_1141_875">
<rect width="119.883" height="38.7831" fill="white" transform="translate(0.150574 0.330688)"/>
</clipPath>
</defs>
</svg>
