<svg width="165" height="45" viewBox="0 0 165 45" fill="none" xmlns="http://www.w3.org/2000/svg">
<g id="Frame" clip-path="url(#clip0_1141_859)">
<g id="Symbols">
<g id="Footer/Desktop">
<g id="Group 5">
<g id="Group 16">
<g id="Group 3">
<mask id="mask0_1141_859" style="mask-type:alpha" maskUnits="userSpaceOnUse" x="-1" y="0" width="166" height="44">
<g id="mask 2">
<path id="Vector" d="M-0.101135 0.73877H164.581V43.4163H-0.101135V0.73877Z" fill="white"/>
</g>
</mask>
<g mask="url(#mask0_1141_859)">
<path id="Fill 1" fill-rule="evenodd" clip-rule="evenodd" d="M164.538 24.5676C164.486 24.1356 164.387 23.6977 164.244 23.2613C163.955 22.387 163.489 21.5167 162.851 20.6488C161.572 18.9176 159.608 17.1978 157.027 15.5164C151.865 12.1505 144.237 8.92744 134.701 5.99199C128.588 4.11349 121.696 2.34595 114.184 0.738647C139.942 7.39329 156.108 15.7353 155.435 23.5604C154.256 37.1941 102.433 44.0961 39.6888 38.9776C25.6383 37.8325 12.2337 36.18 -0.101227 34.1517C15.0843 37.1219 32.9117 39.6255 51.646 41.3263C55.58 41.6821 59.4623 41.9941 63.2767 42.2598C65.1834 42.3902 67.0713 42.5106 68.9456 42.6216C70.8193 42.7306 72.6722 42.8286 74.5054 42.9162C81.8493 43.267 88.8879 43.4307 95.5707 43.4153C108.936 43.3894 120.889 42.6326 130.986 41.2129C151.173 38.3869 163.891 32.8519 164.554 25.8773C164.595 25.4424 164.588 25.006 164.538 24.5676Z" fill="#2C2B2E"/>
</g>
</g>
<path id="Fill 4" fill-rule="evenodd" clip-rule="evenodd" d="M45.5203 26.9201C45.203 28.2596 44.8435 29.9585 44.4486 32.0107C44.0309 32.0107 43.5827 32.046 43.1016 32.1197C42.619 32.1963 41.8535 32.3207 40.8025 32.5018C39.7501 32.6825 38.9927 32.7984 38.5248 32.8571C38.0599 32.9158 37.5326 32.9487 36.9481 32.9487C35.0941 32.9487 33.4237 32.6561 31.9403 32.0719C30.458 31.4877 29.224 30.687 28.243 29.6684C27.2621 28.6523 26.527 27.5057 26.0413 26.2338C25.5561 24.9584 25.3128 23.6084 25.3128 22.1877C25.3128 20.7168 25.5881 19.3234 26.1452 18.0052C26.6999 16.687 27.5085 15.5072 28.5716 14.4712C29.6306 13.4356 30.898 12.631 32.3728 12.0617C33.846 11.4924 35.4637 11.2068 37.2315 11.2068C37.8966 11.2068 38.4847 11.2287 38.9957 11.2745C39.5042 11.3178 40.0436 11.3745 40.6099 11.4486C41.1747 11.5218 41.7318 11.5885 42.2758 11.6517C42.8218 11.7149 43.3318 11.7477 43.8109 11.7477C43.9564 13.2062 44.1911 14.8996 44.51 16.8289C44.51 16.896 44.4577 16.9528 44.3579 17.004C44.259 17.0508 44.1505 17.0772 44.0309 17.0772C43.8134 17.0772 43.6877 16.9946 43.6588 16.8289C43.4316 15.9934 43.0175 15.2171 42.4182 14.5085C41.8165 13.7999 41.0555 13.2351 40.1323 12.8116C39.2097 12.3886 38.2028 12.1771 37.1113 12.1771C35.5311 12.1771 34.0969 12.624 32.8001 13.5182C31.5064 14.4149 30.4904 15.6271 29.7553 17.1623C29.0233 18.6974 28.6557 20.3724 28.6557 22.1812C28.6557 23.9289 29.0233 25.5606 29.7553 27.0728C30.4904 28.5851 31.4988 29.7799 32.7758 30.6611C34.0584 31.5399 35.4475 31.9778 36.9461 31.9778C38.2256 31.9778 39.3602 31.7733 40.3493 31.3658C41.3338 30.9597 42.18 30.3865 42.8841 29.6465C43.5903 28.91 44.1845 27.9984 44.6702 26.9201C44.7492 26.7623 44.8887 26.6852 45.0879 26.6852C45.3743 26.6852 45.5203 26.7623 45.5203 26.9201Z" fill="#2C2B2E"/>
<path id="Fill 6" fill-rule="evenodd" clip-rule="evenodd" d="M68.7596 11.862C68.7596 12.1357 68.6821 12.27 68.5249 12.27C67.5698 12.383 66.8605 12.5422 66.3992 12.7363C65.9348 12.9304 65.6362 13.1812 65.5039 13.4897C65.3711 13.7942 65.3052 14.2366 65.3052 14.8079V24.1944C65.3052 25.8122 65.041 27.2622 64.5067 28.5446C63.9754 29.8289 63.147 30.8476 62.017 31.5955C60.8931 32.3434 59.4787 32.7186 57.7783 32.7186C56.3284 32.7186 55.0569 32.5156 53.9644 32.1055C52.8704 31.698 51.9614 31.1242 51.2349 30.3848C50.5115 29.6458 49.9736 28.7864 49.6274 27.8161C49.2796 26.8437 49.1047 25.7953 49.1047 24.6766V14.8079C49.1047 14.2237 49.0459 13.7823 48.9262 13.4802C48.8071 13.1792 48.5232 12.9304 48.0715 12.7363C47.6198 12.5422 46.9176 12.383 45.9651 12.27C45.8064 12.27 45.7273 12.1357 45.7273 11.862C45.7273 11.5763 45.8064 11.437 45.9651 11.437C46.6484 11.437 47.4464 11.4654 48.3594 11.5196C49.273 11.5699 50.0339 11.5982 50.6504 11.5982C50.9875 11.5982 51.3774 11.5893 51.8245 11.5699C52.2712 11.5544 52.6402 11.535 52.9312 11.5196C53.2263 11.4997 53.6177 11.4848 54.115 11.4654C54.6118 11.4455 55.0331 11.437 55.3788 11.437C55.4371 11.437 55.4929 11.4783 55.5431 11.5614C55.5892 11.644 55.6171 11.7445 55.6171 11.862C55.6171 12.1322 55.538 12.27 55.3788 12.27C54.4242 12.383 53.7185 12.5422 53.2603 12.7433C52.8035 12.9393 52.5135 13.1946 52.3893 13.4996C52.2641 13.8052 52.2032 14.2436 52.2032 14.8064V24.2322C52.2032 26.0495 52.4527 27.4882 52.948 28.5426C53.4428 29.5956 54.1393 30.3261 55.0265 30.7361C55.9167 31.1441 56.9885 31.3467 58.2401 31.3467C60.1874 31.3467 61.6834 30.7316 62.7263 29.4955C63.7686 28.2615 64.2897 26.3934 64.2897 23.8854V14.8064C64.2897 14.2436 64.2253 13.8052 64.089 13.4996C63.9531 13.1946 63.652 12.9373 63.1795 12.7333C62.71 12.5293 62.0008 12.3745 61.0553 12.27C60.997 12.27 60.9407 12.2282 60.8855 12.1521C60.8287 12.0725 60.8028 11.9774 60.8028 11.862C60.8028 11.7445 60.8287 11.644 60.8855 11.5614C60.9407 11.4783 60.997 11.437 61.0553 11.437C61.5121 11.437 62.127 11.4654 62.9012 11.5196C63.6712 11.5699 64.309 11.5982 64.8043 11.5982C65.2905 11.5982 65.9054 11.5699 66.6501 11.5196C67.3918 11.4654 68.0164 11.437 68.5219 11.437C68.5802 11.437 68.6349 11.4783 68.6866 11.5614C68.7353 11.644 68.7596 11.7445 68.7596 11.862Z" fill="#2C2B2E"/>
<path id="Fill 8" fill-rule="evenodd" clip-rule="evenodd" d="M83.9403 17.0587C83.9403 14.1451 82.6324 12.6886 80.019 12.6886C79.0669 12.6886 78.3713 12.7757 77.9389 12.9459C77.5085 13.1146 77.2398 13.3504 77.1344 13.646C77.0309 13.9411 76.9772 14.4089 76.9772 15.0414V21.7189C77.5744 21.797 78.3161 21.8368 79.1997 21.8368C80.3531 21.8368 81.2767 21.6577 81.9708 21.3024C82.6668 20.9491 83.1692 20.4191 83.4754 19.719C83.7857 19.0168 83.9403 18.1291 83.9403 17.0587ZM91.706 32.0818C91.706 32.3545 91.6228 32.4893 91.454 32.4893C91.0763 32.4893 90.5207 32.4614 89.7856 32.3977C89.0525 32.3345 88.5846 32.3017 88.3879 32.3017C88.0898 32.3017 87.6305 32.3345 87.0049 32.3977C86.3778 32.4614 85.9109 32.4893 85.6042 32.4893L80.971 25.0833C80.4555 24.2921 80.0555 23.7492 79.7695 23.4501C79.4882 23.1545 79.1516 22.955 78.7658 22.8529C78.3779 22.748 77.7833 22.6972 76.9772 22.6972V29.1398C76.9772 29.7046 77.0421 30.1411 77.1714 30.4506C77.3006 30.7556 77.584 31.0044 78.0246 31.1965C78.4585 31.3881 79.1693 31.5408 80.1518 31.6583C80.313 31.6956 80.3906 31.8374 80.3906 32.0818C80.3906 32.3545 80.313 32.4893 80.1533 32.4893C79.4593 32.4893 78.6527 32.4614 77.7285 32.3977C76.8074 32.3345 76.0368 32.3017 75.4213 32.3017C74.8094 32.3017 74.0424 32.3345 73.1324 32.3977C72.2173 32.4614 71.4194 32.4893 70.7329 32.4893C70.5682 32.4893 70.482 32.3545 70.482 32.0837C70.482 31.8285 70.5682 31.6867 70.7365 31.6583C71.6977 31.5408 72.4039 31.3881 72.8475 31.1965C73.288 31.0089 73.5694 30.7666 73.6956 30.474C73.8188 30.1824 73.8807 29.7395 73.8807 29.1443V15.0414C73.8807 14.4462 73.8188 14.0058 73.7022 13.7122C73.5826 13.4201 73.2906 13.1723 72.8297 12.9653C72.3684 12.7628 71.6688 12.6055 70.7365 12.4985C70.5682 12.4985 70.482 12.3612 70.482 12.089C70.482 11.973 70.5033 11.873 70.5504 11.7924C70.5935 11.7103 70.6554 11.666 70.7329 11.666C71.4194 11.666 72.2173 11.6939 73.1324 11.7486C74.0454 11.7989 74.8094 11.8272 75.4213 11.8272C76.0368 11.8272 76.8074 11.7989 77.73 11.7486C78.6527 11.6939 79.4608 11.666 80.1553 11.666C82.4483 11.666 84.209 12.1452 85.4379 13.1051C86.6663 14.0645 87.2842 15.3817 87.2842 17.0522C87.2842 18.1554 86.8462 19.1631 85.9687 20.0787C85.0916 20.9904 83.9353 21.699 82.496 22.1941L87.4353 29.5673C87.7968 30.1211 88.2505 30.575 88.8072 30.9193C89.3587 31.2657 90.252 31.512 91.4855 31.6583C91.634 31.6867 91.706 31.8285 91.706 32.0818Z" fill="#2C2B2E"/>
<path id="Fill 10" fill-rule="evenodd" clip-rule="evenodd" d="M110.544 16.6678C110.544 16.8838 110.37 16.9883 110.025 16.9883C109.863 16.9883 109.763 16.9231 109.722 16.7853C109.266 15.3133 108.616 14.3041 107.775 13.7498C106.935 13.2004 105.748 12.9277 104.217 12.9277H102.784C102.287 12.9277 101.946 13.0044 101.755 13.1636C101.564 13.3159 101.471 13.6169 101.471 14.0683V29.2745C101.471 29.8393 101.536 30.2757 101.667 30.5832C101.794 30.8882 102.081 31.139 102.518 31.3266C102.958 31.5187 103.67 31.671 104.66 31.7869C104.82 31.8168 104.898 31.9591 104.898 32.2139C104.898 32.4846 104.821 32.6199 104.661 32.6199C104.314 32.6199 103.91 32.613 103.446 32.5916C102.985 32.5672 102.608 32.5498 102.315 32.5259C102.023 32.5065 101.642 32.4866 101.178 32.4627C100.711 32.4433 100.304 32.4348 99.956 32.4348C99.3324 32.4348 98.5562 32.4627 97.632 32.5259C96.7104 32.5891 95.9109 32.6199 95.2377 32.6199C95.0764 32.6199 94.9974 32.4846 94.9974 32.2139C94.9974 31.9701 95.0764 31.8282 95.2377 31.7869C96.2181 31.671 96.9258 31.5187 97.3593 31.3266C97.7968 31.139 98.0802 30.8882 98.208 30.5832C98.3347 30.2757 98.4011 29.8393 98.4011 29.2745V14.0683C98.4011 13.6169 98.3078 13.3159 98.1258 13.1636C97.9428 13.0044 97.5991 12.9277 97.0906 12.9277H95.9018C95.0293 12.9277 94.1578 13.0805 93.2914 13.3855C92.4215 13.6966 91.6702 14.1384 91.0365 14.7271C90.4012 15.3083 89.9577 15.9941 89.7097 16.7853C89.652 16.9231 89.5409 16.9883 89.3833 16.9883C89.0365 16.9883 88.8611 16.8838 88.8611 16.6678C89.4279 15.165 89.9688 13.4557 90.4874 11.5354C91.8248 11.8175 94.9842 11.9574 99.956 11.9574C105.078 11.9574 108.316 11.8175 109.665 11.5354C109.723 12.0728 109.792 12.5899 109.865 13.0924C109.941 13.595 110.038 14.1578 110.157 14.7838C110.276 15.4064 110.405 16.0334 110.544 16.6678Z" fill="#2C2B2E"/>
<path id="Fill 12" fill-rule="evenodd" clip-rule="evenodd" d="M122.193 32.0838C122.193 32.3545 122.115 32.4893 121.957 32.4893C121.282 32.4893 120.489 32.4614 119.574 32.3978C118.663 32.3346 117.895 32.3017 117.274 32.3017C116.648 32.3017 115.873 32.3346 114.95 32.3978C114.03 32.4614 113.224 32.4893 112.543 32.4893C112.383 32.4893 112.305 32.3545 112.305 32.0838C112.305 31.8394 112.383 31.6981 112.543 31.6588C113.524 31.5409 114.237 31.3886 114.673 31.1965C115.11 31.0089 115.393 30.7626 115.521 30.4526C115.65 30.147 115.717 29.7091 115.717 29.1443V15.0414C115.717 14.479 115.651 14.0426 115.528 13.7351C115.405 13.4256 115.115 13.1748 114.657 12.9752C114.201 12.7757 113.499 12.6165 112.543 12.499C112.383 12.499 112.305 12.3647 112.305 12.091C112.305 11.973 112.327 11.873 112.371 11.7924C112.419 11.7103 112.473 11.666 112.543 11.666C113.224 11.666 114.03 11.6939 114.95 11.7486C115.873 11.7989 116.648 11.8272 117.274 11.8272C117.895 11.8272 118.663 11.7989 119.574 11.7486C120.489 11.6939 121.282 11.666 121.957 11.666C122.115 11.666 122.193 11.8083 122.193 12.091C122.193 12.3647 122.115 12.499 121.957 12.499C121.002 12.6165 120.302 12.7712 119.845 12.9688C119.398 13.1628 119.109 13.4107 118.992 13.7127C118.872 14.0143 118.812 14.4562 118.812 15.0414V29.1443C118.812 29.7395 118.875 30.1843 118.998 30.4809C119.122 30.78 119.4 31.0194 119.831 31.205C120.266 31.3901 120.971 31.5409 121.957 31.6588C122.115 31.6867 122.193 31.8285 122.193 32.0838Z" fill="#2C2B2E"/>
<path id="Fill 14" fill-rule="evenodd" clip-rule="evenodd" d="M137.349 26.4652C137.349 27.7695 137.082 28.912 136.538 29.8913C135.997 30.8662 135.224 31.6225 134.215 32.153C133.207 32.6825 132.021 32.9487 130.664 32.9487C130.078 32.9487 129.607 32.9158 129.253 32.8571C128.901 32.7984 128.372 32.6825 127.667 32.5083C126.963 32.3336 126.403 32.2072 125.986 32.1286C125.568 32.0505 125.106 32.0087 124.6 32.0087C124.52 30.2292 124.397 28.5348 124.227 26.92C124.227 26.7643 124.383 26.6852 124.688 26.6852C124.897 26.6852 125.024 26.7643 125.077 26.92C125.462 28.2034 125.896 29.2001 126.369 29.9172C126.845 30.6303 127.439 31.1538 128.146 31.4832C128.853 31.8146 129.73 31.9803 130.772 31.9803C132.039 31.9803 132.999 31.6225 133.656 30.9075C134.31 30.1919 134.636 29.2215 134.636 27.9974C134.636 26.9385 134.236 26.0651 133.438 25.3779C132.642 24.6922 131.397 23.8657 129.707 22.8898C128.015 21.9205 126.755 21.0213 125.916 20.1948C125.077 19.3692 124.659 18.3008 124.659 17.001C124.659 15.9869 124.927 15.036 125.462 14.1507C125.998 13.257 126.755 12.5459 127.732 12.0114C128.709 11.474 129.849 11.2068 131.146 11.2068C131.663 11.2068 132.088 11.2287 132.42 11.2745C132.753 11.3183 133.084 11.3725 133.41 11.4427C133.737 11.5088 134.104 11.5795 134.519 11.6452C134.93 11.7129 135.369 11.7477 135.834 11.7477C135.946 13.3525 136.11 14.8966 136.332 16.375C136.332 16.5407 136.198 16.6229 135.925 16.6229C135.656 16.6229 135.507 16.5407 135.477 16.375C135.137 14.8782 134.629 13.8043 133.943 13.152C133.259 12.5001 132.319 12.1771 131.119 12.1771C130.357 12.1771 129.692 12.3289 129.13 12.631C128.573 12.933 128.145 13.3525 127.847 13.8989C127.55 14.4428 127.398 15.0872 127.398 15.8257C127.398 16.7592 127.785 17.5474 128.56 18.1894C129.336 18.8353 130.558 19.6334 132.224 20.5928C133.894 21.5518 135.164 22.4614 136.039 23.3282C136.913 24.1961 137.349 25.2386 137.349 26.4652Z" fill="#2C2B2E"/>
</g>
</g>
</g>
</g>
</g>
<defs>
<clipPath id="clip0_1141_859">
<rect width="165" height="44.2548" fill="white" transform="translate(0 0.241211)"/>
</clipPath>
</defs>
</svg>
