<svg width="116" height="68" viewBox="0 0 116 68" fill="none" xmlns="http://www.w3.org/2000/svg">
<g id="Group">
<path id="Vector" d="M67.6566 47.9339H70.4571C71.1786 47.9339 71.6005 47.7428 71.9124 47.4223C72.2548 47.0711 72.4382 46.5534 72.4382 45.9618C72.4382 45.3086 72.267 44.8155 71.9124 44.4828C71.4905 44.0883 70.9341 43.9836 70.1269 43.9836H67.6566V47.9339ZM64.7094 43.3427C64.7094 42.1163 65.3025 41.5863 66.4704 41.5863H70.7567C72.1753 41.5863 73.3493 41.9006 74.1748 42.6771C74.9514 43.4043 75.4161 44.4951 75.4161 45.9618C75.4161 48.3591 73.9669 50.3311 71.0808 50.3311H67.6566V53.5357C67.6566 54.4293 67.088 55.0394 66.183 55.0394C65.2719 55.0394 64.7032 54.4355 64.7032 53.5357V43.3427H64.7094Z" fill="#0078BF"/>
<path id="Vector_2" d="M84.5148 47.9339H87.3153C88.0368 47.9339 88.4587 47.7428 88.7705 47.4223C89.113 47.0711 89.2964 46.5534 89.2964 45.9618C89.2964 45.3086 89.1252 44.8155 88.7705 44.4828C88.3486 44.0883 87.7922 43.9836 86.979 43.9836H84.5209V47.9339H84.5148ZM81.5614 43.3427C81.5614 42.1163 82.1484 41.5863 83.3224 41.5863H87.6088C89.0274 41.5863 90.2014 41.9006 91.0268 42.6771C91.8034 43.4043 92.2681 44.4951 92.2681 45.9618C92.2681 48.3591 90.8189 50.3311 87.9328 50.3311H84.5148V53.5357C84.5148 54.4293 83.9461 55.0394 83.0411 55.0394C82.1301 55.0394 81.5675 54.4355 81.5675 53.5357V43.3427H81.5614Z" fill="#0078BF"/>
<path id="Vector_3" d="M113.033 49.8073C114.501 49.0986 115.234 47.6195 115.234 45.9125C115.234 44.4519 114.77 43.4043 113.993 42.6771C113.168 41.9068 111.994 41.5863 110.575 41.5863H106.258C105.084 41.5863 104.497 42.1163 104.497 43.3427V53.5295C104.497 54.4231 105.066 55.0332 105.977 55.0332C106.882 55.0332 107.45 54.4293 107.45 53.5295V50.2572H110.202L112.391 54.1458C112.703 54.7313 113.07 55.0271 113.779 55.0271C114.36 55.0271 115.124 54.6758 115.124 53.6528C115.124 53.3755 115.008 53.092 114.874 52.864C114.702 52.5805 113.724 50.9535 113.033 49.8073ZM107.45 43.9836H109.945C110.838 43.9836 111.376 44.15 111.731 44.4828C112.085 44.8155 112.257 45.2592 112.257 45.9187C112.257 46.5288 112.073 47.0094 111.749 47.3422C111.388 47.7181 110.85 47.8722 110.178 47.8722H107.45V43.9836Z" fill="#0078BF"/>
<path id="Vector_4" fill-rule="evenodd" clip-rule="evenodd" d="M32.8951 42.9667C31.8923 42.0177 30.6633 41.5863 28.7739 41.5863H25.099C24.0473 41.5863 23.4175 42.0054 23.4175 43.3427V53.1475C23.4175 54.4848 24.0473 54.9038 25.099 54.9038H29.0368C32.5038 54.9038 34.7356 52.7284 34.7356 48.3591C34.7356 45.9248 34.0997 44.1007 32.8951 42.9667ZM30.8039 51.6006C30.3148 52.1306 29.6116 52.3956 28.6271 52.3956H26.3708V44.0883H28.2603C29.3364 44.0883 30.0885 44.2362 30.6878 44.8587C31.3604 45.5551 31.7456 46.7136 31.7456 48.3652C31.7456 49.7765 31.4337 50.9166 30.8039 51.6006Z" fill="#0078BF"/>
<path id="Vector_5" d="M57.2985 52.5743C57.1517 52.149 54.6141 44.8463 54.2106 43.6754C53.9599 42.942 53.7275 42.5106 53.4157 42.1902C52.9693 41.728 52.4007 41.5924 51.832 41.5924C51.1594 41.5924 50.6458 41.8143 50.2605 42.1779C49.9059 42.5106 49.6674 42.9852 49.4718 43.5398C49.0988 44.5936 46.3044 52.2538 46.1821 52.5804C46.0415 52.9687 45.9008 53.4062 45.9008 53.7144C45.9008 54.5032 46.4634 55.0085 47.2644 55.0085C47.9125 55.0085 48.3467 54.7189 48.5607 54.0841C48.6707 53.7637 48.952 52.9379 49.3128 51.8779H54.1433C54.3879 52.5989 54.6264 53.3261 54.871 54.0471C55.0727 54.6018 55.4396 55.0085 56.2039 55.0085C56.9499 55.0085 57.5858 54.4354 57.5858 53.7144C57.5858 53.3816 57.4452 52.9933 57.2985 52.5743ZM50.1016 49.5546C50.6824 47.8475 51.3 46.0172 51.7403 44.7292C52.15 45.9371 52.7247 47.6565 53.3668 49.5546H50.1016Z" fill="#0078BF"/>
<path id="Vector_6" d="M79.6291 53.5295C79.6291 54.4231 79.0605 55.0332 78.1555 55.0332C77.2444 55.0332 76.6758 54.4293 76.6758 53.5295V43.09C76.6758 42.1964 77.2444 41.5863 78.1555 41.5863C79.0605 41.5863 79.6291 42.1902 79.6291 43.09V53.5295Z" fill="#0078BF"/>
<path id="Vector_7" d="M37.7868 54.8977C36.7351 54.8977 36.087 54.4786 36.087 53.1413V43.09C36.087 42.1964 36.6556 41.5863 37.5667 41.5863C38.4717 41.5863 39.0403 42.1902 39.0403 43.09V52.4079H43.5957C44.146 52.4079 44.5374 52.5127 44.7942 52.7777C45.0021 52.9872 45.0938 53.283 45.0938 53.6466C45.0938 54.0102 45.0021 54.306 44.8003 54.5156C44.5618 54.7682 44.1705 54.9038 43.5957 54.9038H37.7868V54.8977Z" fill="#0078BF"/>
<path id="Vector_8" d="M95.2154 54.8976C94.1636 54.8976 93.5155 54.4786 93.5155 53.1413V43.3427C93.5155 42.0054 94.2065 41.5863 95.2582 41.5863H101.471C102.021 41.5863 102.412 41.6911 102.669 41.9561C102.877 42.1656 102.969 42.4614 102.969 42.825C102.969 43.1824 102.877 43.4844 102.675 43.6939C102.437 43.9466 102.045 44.076 101.471 44.076H96.4689V47.0218H100.798C101.336 47.0218 101.746 47.1265 101.99 47.3669C102.204 47.5702 102.296 47.866 102.296 48.2358C102.296 48.6056 102.204 48.8952 101.996 49.1047C101.77 49.3266 101.385 49.456 100.786 49.456H96.4627V52.3956H101.605C102.155 52.3956 102.547 52.5004 102.804 52.7654C103.011 52.9749 103.103 53.2707 103.103 53.6343C103.103 53.9979 103.011 54.2937 102.81 54.5032C102.571 54.7559 102.18 54.8853 101.605 54.8853H95.2154V54.8976Z" fill="#0078BF"/>
<path id="Vector_9" d="M11.5795 67.7222C9.12141 67.7222 7.47658 67.2415 6.01518 66.4095C4.35201 65.4543 2.98845 64.0369 2.09571 62.3299C1.19687 60.6166 0.946167 58.7863 0.946167 56.4322V11.8392C0.946167 9.48505 1.19687 7.64858 2.09571 5.94152C2.98845 4.23446 4.35812 2.81089 6.01518 1.86184C7.47658 1.02988 9.1153 0.549194 11.5795 0.549194H57.0294C59.4875 0.549194 61.1323 1.02988 62.5937 1.86184C64.2569 2.81705 65.6205 4.23446 66.5132 5.94152C67.4059 7.64858 67.6628 9.48505 67.6628 11.8392V34.3452C67.6628 35.3312 67.1186 35.8489 66.2136 35.8489C65.3086 35.8489 64.8195 35.3436 64.691 34.3452C63.7861 27.48 61.383 21.9953 57.1395 17.6567C52.3334 12.7451 45.534 9.73156 37.4627 9.73156C21.1978 9.73156 10.0875 21.9644 10.0875 37.3218C10.0875 45.0621 12.9125 52.0074 17.7919 56.993C21.956 61.2452 27.4897 63.9938 34.3075 64.7456C35.6466 64.8935 36.0869 65.4174 36.0869 66.2986C36.0869 66.7177 35.9585 67.0689 35.7017 67.3155C35.4326 67.5804 34.9862 67.7283 34.3687 67.7283L11.5795 67.7222Z" fill="#0078BF"/>
</g>
</svg>
