<svg width="159" height="39" viewBox="0 0 159 39" fill="none" xmlns="http://www.w3.org/2000/svg">
<g id="Group">
<path id="Vector" d="M3.12602 13.7491V8.59179H8.25381L8.83237 6.98412H3.12602V1.9303H9.50604L10.0846 0.322632H1.37448V15.3567H9.87854L10.465 13.7491H3.12602Z" fill="#1D1D1B"/>
<g id="Group_2">
<path id="Vector_2" d="M23.6055 11.6082C23.447 12.0538 23.2806 12.6348 23.1696 13.0487C23.0587 12.6348 22.8843 12.0538 22.7258 11.6082L18.6442 0.322632H16.7737L22.3216 15.2612V15.3567H24.0414L29.5893 0.322632H27.7347L23.6055 11.6082Z" fill="#1D1D1B"/>
<path id="Vector_3" d="M46.1298 13.7491H38.7908V8.59179H43.9186L44.5051 6.98412H38.7908V1.9303H45.1708L45.7573 0.322632H37.0472V15.3567H45.5513L46.1298 13.7491Z" fill="#1D1D1B"/>
<path id="Vector_4" d="M56.1001 9.15688H59.5477L62.8685 15.3568H64.8657L61.5845 9.19667L61.2992 8.74302C62.1286 8.44705 62.8414 7.89121 63.3322 7.15752C63.8231 6.42382 64.0662 5.55111 64.0256 4.66813C64.0822 3.84918 63.8926 3.03202 63.4814 2.32251C63.0702 1.61301 62.4563 1.04384 61.7193 0.688752C60.8217 0.350653 59.8618 0.212168 58.9057 0.282855H54.3882V15.3568H56.1001V9.15688ZM62.1789 4.70793C62.214 5.08232 62.1679 5.4599 62.0437 5.81467C61.9196 6.16945 61.7203 6.49299 61.4597 6.76302C61.1991 7.03305 60.8833 7.24316 60.5341 7.37888C60.1848 7.5146 59.8105 7.57271 59.4367 7.54921H56.1001V1.93032H58.9136C59.6021 1.86774 60.295 1.9828 60.9267 2.26459C61.3417 2.51398 61.6788 2.87498 61.9001 3.30676C62.1214 3.73855 62.218 4.2239 62.1789 4.70793Z" fill="#1D1D1B"/>
<path id="Vector_5" d="M99.5318 7.02391H91.3289V0.322632H89.5774V15.3567H91.3289V8.63158H99.5318V15.3567H101.275V0.322632H99.5318V7.02391Z" fill="#1D1D1B"/>
<path id="Vector_6" d="M112.403 8.59179H117.531L118.117 6.98412H112.403V1.9303H118.783L119.369 0.322632H110.659V15.3567H119.155L119.742 13.7491H112.403V8.59179Z" fill="#1D1D1B"/>
<path id="Vector_7" d="M132.724 0.322632H127.834V15.3567H132.724C137.36 15.3567 140.245 12.4757 140.245 7.82774C140.245 3.17983 137.36 0.322632 132.724 0.322632ZM129.554 1.91438H132.549C136.211 1.91438 138.398 4.11896 138.398 7.81183C138.398 11.5047 136.211 13.7331 132.549 13.7331H129.554V1.91438Z" fill="#1D1D1B"/>
<path id="Vector_8" d="M25.1906 33.2481C25.1906 35.6834 23.9384 37.2274 21.4577 37.2274C18.977 37.2274 17.7486 35.7312 17.7486 33.3197V23.5623H16.0129V33.3117C16.0129 36.6226 18.0497 38.8829 21.5132 38.8829C24.9766 38.8829 26.9738 36.6544 26.9738 33.3117V23.5623H25.1906V33.2481Z" fill="#1D1D1B"/>
<path id="Vector_9" d="M32.6406 25.1699H37.3483V38.5964H39.0919V25.1699H43.7838V23.5623H32.6406V25.1699Z" fill="#1D1D1B"/>
<path id="Vector_10" d="M59.0167 30.2635H51.0991V23.5623H49.3476V38.5964H51.0991V31.8792H59.0167V38.5964H60.7603V23.5623H59.0167V30.2635Z" fill="#1D1D1B"/>
<path id="Vector_11" d="M68.6303 31.8314H73.4728L74.0593 30.2237H68.6303V25.1699H74.725L75.3115 23.5623H66.8867V38.5964H75.1054L75.6919 36.9887H68.6303V31.8314Z" fill="#1D1D1B"/>
<path id="Vector_12" d="M88.5946 31.9826C89.421 31.6848 90.13 31.1277 90.6167 30.3938C91.1034 29.66 91.342 28.7883 91.2972 27.9077C91.3462 27.0963 91.1529 26.2886 90.742 25.5882C90.3311 24.8877 89.7214 24.3264 88.9909 23.9761C88.0941 23.6343 87.134 23.4931 86.1773 23.5623H81.6994V38.6043H83.443V32.3965H86.8906L90.2114 38.6043H92.2086L88.8958 32.4363L88.6104 31.9826H88.5946ZM89.5219 27.9475C89.5571 28.3226 89.5108 28.701 89.3862 29.0563C89.2616 29.4117 89.0616 29.7357 88.8001 30.0058C88.5386 30.276 88.2218 30.4859 87.8716 30.6211C87.5214 30.7563 87.1461 30.8135 86.7717 30.7888H83.443V25.1699H86.2566C86.9458 25.1055 87.6399 25.2235 88.2696 25.5122C88.6852 25.7588 89.0232 26.1182 89.2447 26.5489C89.4661 26.9797 89.5622 27.4644 89.5219 27.9475Z" fill="#1D1D1B"/>
<path id="Vector_13" d="M99.294 23.5623H97.5425V38.5964H105.381L105.967 36.9887H99.294V23.5623Z" fill="#1D1D1B"/>
<path id="Vector_14" d="M115.383 23.5623L109.883 38.6043H111.737L113.409 33.9086H119.092L120.78 38.6043H122.674L117.126 23.5623H115.383ZM118.553 32.3169H113.956L115.835 27.1835C115.993 26.7617 116.159 26.1648 116.278 25.743C116.389 26.1648 116.564 26.7617 116.714 27.1835L118.553 32.3169Z" fill="#1D1D1B"/>
<path id="Vector_15" d="M137.566 34.3225C137.566 34.7443 137.566 35.2935 137.63 35.7073C137.376 35.2776 137.011 34.6568 136.718 34.227L129.514 23.6259L129.466 23.5623H127.834V38.6043H129.585V27.8441C129.585 27.4223 129.546 26.8731 129.514 26.4592C129.768 26.889 130.132 27.5018 130.425 27.9316L137.63 38.5327L137.677 38.6043H139.318V23.5623H137.574L137.566 34.3225Z" fill="#1D1D1B"/>
<path id="Vector_16" d="M150.612 23.5623H145.722V38.6043H150.612C155.248 38.6043 158.125 35.7153 158.125 31.0674C158.125 26.4195 155.248 23.5623 150.612 23.5623ZM147.441 25.154H150.437C154.107 25.154 156.294 27.3586 156.294 31.0515C156.294 34.7443 154.107 36.9728 150.437 36.9728H147.441V25.154Z" fill="#1D1D1B"/>
<path id="Vector_17" d="M77.0392 6.9762C75.3669 6.25991 73.9166 5.64709 73.9166 4.14288C73.9166 2.97294 75.0182 1.75525 76.849 1.75525C77.9929 1.7848 79.0911 2.21241 79.9558 2.96498L80.0905 3.10028L80.7166 1.38119C79.6227 0.496997 78.2529 0.0291081 76.849 0.0600343C74.2019 0.0600343 72.0937 1.86667 72.0937 4.17471C72.0937 6.68172 74.2415 7.6129 76.1357 8.43265C77.8238 9.16486 79.4168 9.84931 79.4168 11.5047C79.4168 12.9214 78.2835 13.8924 76.6508 13.8924C75.255 13.8465 73.9266 13.2788 72.9259 12.3006L72.807 12.1733L72.165 13.9401C73.4063 14.9937 74.9861 15.5593 76.6112 15.5319C79.3217 15.5319 81.208 13.8287 81.208 11.3933C81.208 8.67937 78.9809 7.73228 77.0075 6.89661" fill="#1D1D1B"/>
<path id="Vector_18" d="M152.997 6.97617C151.317 6.25988 149.875 5.64706 149.875 4.14285C149.875 2.97291 150.968 1.75522 152.807 1.75522C153.949 1.78129 155.046 2.20946 155.906 2.96496L156.049 3.10026L156.667 1.38116C155.572 0.494346 154.197 0.028733 152.791 0.0679654C150.136 0.0679654 148.036 1.8746 148.036 4.18265C148.036 6.68966 150.176 7.62083 152.07 8.44058C153.758 9.17279 155.359 9.85724 155.359 11.5127C155.359 12.9293 154.218 13.9003 152.593 13.9003C151.195 13.8533 149.865 13.286 148.86 12.3085L148.828 12.221L148.186 13.9878C149.429 15.0389 151.008 15.6041 152.633 15.5796C155.343 15.5796 157.229 13.8764 157.229 11.441C157.229 8.7271 155.002 7.78001 153.037 6.94434" fill="#1D1D1B"/>
<path id="Vector_19" d="M5.78108 30.2158C4.10088 29.5075 2.65844 28.8867 2.65844 27.3825C2.65844 26.2126 3.75215 24.9949 5.59087 24.9949C6.73684 25.0213 7.83687 25.4525 8.69766 26.2126L8.8324 26.3479L9.45851 24.6208C8.36257 23.7403 6.99419 23.2728 5.59087 23.2997C2.94375 23.2997 0.835571 25.1143 0.835571 27.4223C0.835571 29.9214 2.98338 30.8525 4.87758 31.6723C6.56571 32.4045 8.15873 33.0969 8.15873 34.7523C8.15873 36.161 7.01746 37.14 5.39273 37.14C3.99659 37.0956 2.66762 36.5277 1.66775 35.5482L1.54094 35.4129L0.898975 37.1798C2.14344 38.2333 3.72566 38.7987 5.3531 38.7715C8.0557 38.7715 9.94989 37.0763 9.94989 34.6409C9.94989 31.919 7.7149 30.9719 5.74938 30.1363" fill="#1D1D1B"/>
</g>
</g>
</svg>
