<svg width="125" height="41" viewBox="0 0 125 41" fill="none" xmlns="http://www.w3.org/2000/svg">
<g id="Group">
<path id="Vector" d="M40.6699 22.9604C39.5843 23.4862 37.7597 23.852 35.4732 24.0578C35.5887 23.6691 35.7503 23.3034 35.8427 22.9147C36.0275 22.0917 36.0737 21.2687 36.1199 20.4457C37.6211 21.0172 38.9376 21.6116 39.8615 22.2289C40.231 22.4804 40.4389 22.709 40.6699 22.9604ZM32.3552 15.942C31.7547 15.782 31.2004 15.622 30.5768 15.4619C28.475 14.959 26.2809 14.5475 24.0405 14.2046L25.1029 9.15223C28.5674 10.2496 31.108 12.7643 32.3552 15.942ZM22.9319 8.76359L21.8464 13.9531C20.5992 13.7931 19.352 13.6102 18.1048 13.4959C16.5573 13.3587 15.033 13.2673 13.5548 13.2215C13.1391 13.2215 12.8157 13.2444 12.4 13.2444C14.802 10.0438 18.7746 8.32922 22.9319 8.76359ZM7.78072 16.5593C7.73453 16.7193 7.66524 16.8793 7.61905 17.0394C7.41118 18.0681 7.3188 19.074 7.3188 20.0799C5.88682 19.5084 4.59343 18.9369 3.71577 18.3653C3.36933 18.1367 3.18456 17.931 2.9305 17.7023C3.96983 17.1765 5.63277 16.7879 7.78072 16.5593ZM11.4068 24.6979C11.9381 24.8351 12.4462 24.9951 13.0005 25.1094C15.0099 25.5895 17.1116 26.001 19.2596 26.321L18.3357 30.7561C15.1253 29.7502 12.7233 27.5327 11.4068 24.6979ZM12.3538 20.1028C11.7764 19.5312 12.1921 19.0283 13.5317 18.6397C14.4556 18.3882 15.7489 18.2053 17.2502 18.1138C17.9893 18.0681 18.7977 18.0681 19.6291 18.0681C20.068 18.0681 20.5068 18.1138 20.9456 18.1367L20.1141 22.0917C16.4187 21.7488 13.2776 20.9715 12.3538 20.1028ZM13.7627 22.0688C12.4924 21.7717 11.4761 21.4059 10.3675 21.063C10.3444 20.8572 10.3906 20.6514 10.3675 20.4457C12.0304 21.4287 15.6797 22.2746 19.9987 22.6632L19.8832 23.2348C17.8045 22.9147 15.7259 22.5261 13.7627 22.0688ZM13.5086 16.3764C14.9175 16.4221 16.3956 16.4907 17.8738 16.6279C18.9593 16.7193 20.0911 16.9022 21.1997 17.0394L21.0842 17.588C20.3913 17.5652 19.7215 17.4737 19.0055 17.4737C17.9431 17.4737 16.9269 17.4737 15.9799 17.5423C14.0398 17.6338 12.4 17.8624 11.2221 18.2053C10.8063 18.3196 10.6678 18.4796 10.3906 18.6168C10.4368 18.2739 10.3213 17.9767 10.3906 17.6338C10.483 17.1765 10.7832 16.8336 10.9218 16.3993C11.7764 16.3764 12.5848 16.3535 13.5086 16.3764ZM20.4606 31.2134L21.4306 26.5954C22.7702 26.7783 24.1329 26.984 25.4494 27.0983C26.9968 27.2355 28.5212 27.3269 29.9994 27.3727C30.1379 27.3727 30.2303 27.3727 30.392 27.3727C27.9438 30.1389 24.3408 31.6249 20.4606 31.2134ZM32.2397 24.2178C31.5237 24.2178 30.8308 24.2407 30.0456 24.2178C28.6367 24.1721 27.1816 24.1035 25.6804 23.9663C24.4793 23.852 23.2783 23.6691 22.0542 23.532L22.2159 22.8004C23.0474 22.8461 23.8557 22.9147 24.6872 22.9376C25.7496 22.9604 26.7659 22.9376 27.7128 22.869C29.6529 22.7775 31.2928 22.5489 32.4707 22.206C32.7709 22.1146 32.8171 22.0003 33.0481 21.9088C33.025 22.046 33.0712 22.1832 33.0481 22.3203C32.9095 23.029 32.5169 23.5777 32.2397 24.2178ZM31.362 20.3085C31.9395 20.8801 31.5237 21.383 30.1841 21.7717C29.2603 22.0231 27.99 22.206 26.4656 22.2975C25.7265 22.3432 24.9182 22.3432 24.0867 22.3432C23.5093 22.3432 22.9319 22.2746 22.3545 22.2517L23.186 18.2739C27.0661 18.6168 30.4151 19.3941 31.362 20.3085ZM23.3707 17.2908C25.5649 17.6338 27.7359 18.0224 29.7915 18.5025C31.0387 18.7997 32.0087 19.1426 33.0943 19.4627C33.0943 19.577 33.0943 19.6684 33.0943 19.7827C31.2697 18.8454 27.5743 18.0453 23.3014 17.6795L23.3707 17.2908ZM42.7947 21.9317C43.0257 21.1773 42.5868 20.3314 41.1549 19.3712C39.9077 18.5482 38.06 17.7481 35.7965 16.9708C34.711 11.9642 30.9001 7.78055 25.6804 6.31743L26.5349 2.22526C26.9737 2.11096 27.3202 1.90521 27.4126 1.58515C27.5512 0.990756 26.8814 0.350641 25.9113 0.144889C24.9644 -0.0608623 24.0867 0.259196 23.9481 0.830727C23.8788 1.17365 24.1329 1.51657 24.5255 1.81376L24.4101 1.7909L23.5555 5.90593C17.5274 5.15151 11.8226 8.19206 9.07411 13.3358C4.1546 13.5873 1.26756 14.5932 1.15208 16.0335C1.15208 16.0106 0.782541 17.8395 0.643964 18.7997C0.528482 19.5084 1.08279 20.3314 2.39928 21.2001C3.64648 22.046 5.56348 22.869 7.85001 23.6234C9.12031 28.31 12.7464 32.1735 17.7121 33.6138L16.8345 37.7517C16.3494 37.8431 15.9568 38.0489 15.8875 38.4147C15.7489 39.0091 16.4187 39.6492 17.3888 39.8549C18.3357 40.0607 19.2134 39.7406 19.352 39.1691C19.4213 38.8719 19.2596 38.5518 18.9824 38.3004L19.8601 34.0939C25.6573 34.8483 31.1773 32.0821 34.0643 27.3041C39.1455 27.0755 42.2404 26.0924 42.4714 24.675C42.4483 24.6522 42.8178 21.886 42.7947 21.9317Z" fill="#0071B9"/>
<path id="Vector_2" d="M50.5552 0.853516H59.7013V2.65956H52.7493V8.26057H59.1701V10.0437H52.7493V17.6337H50.5552V0.853516Z" fill="black"/>
<path id="Vector_3" d="M64.2743 10.6611C64.2743 13.6788 66.0296 16.3993 69.1014 16.3993C72.1963 16.3993 73.9517 13.7245 73.9517 10.5239C73.9517 7.71198 72.3811 4.76287 69.1245 4.76287C65.8911 4.74001 64.2743 7.55195 64.2743 10.6611ZM76.0303 10.4096C76.0303 15.2791 72.8661 17.8624 68.986 17.8624C64.9903 17.8624 62.1725 14.959 62.1725 10.6839C62.1725 6.18027 65.152 3.25403 69.2169 3.25403C73.3512 3.25403 76.0303 6.22599 76.0303 10.4096Z" fill="black"/>
<path id="Vector_4" d="M78.8711 3.48267H80.7188V16.1021H86.8393V17.6338H78.8711V3.48267Z" fill="black"/>
<path id="Vector_5" d="M96.8862 11.004H91.3431V16.1021H97.5329V17.6338H89.4954V3.48267H97.2096V5.01437H91.3431V9.49518H96.8862V11.004Z" fill="black"/>
<path id="Vector_6" d="M103.4 17.6338V11.6441L98.8727 3.50549H100.974L102.984 7.41477C103.538 8.48925 103.954 9.35798 104.416 10.341H104.462C104.855 9.42656 105.363 8.48925 105.894 7.41477L107.95 3.50549H110.051L105.247 11.6212V17.6566H103.4V17.6338Z" fill="black"/>
<path id="Vector_7" d="M52.7493 23.1205V30.1389H60.9716V23.1205H63.1888V39.9235H60.9716V32.0364H52.7493V39.9235H50.5552V23.1205H52.7493Z" fill="black"/>
<path id="Vector_8" d="M68.4317 32.9279C68.4317 35.9456 70.187 38.6661 73.2588 38.6661C76.3537 38.6661 78.109 35.9913 78.109 32.7908C78.109 29.9788 76.5385 27.0297 73.2819 27.0297C70.0484 27.0069 68.4317 29.8188 68.4317 32.9279ZM80.1877 32.6765C80.1877 37.5459 77.0235 40.1292 73.1433 40.1292C69.1476 40.1292 66.3299 37.2258 66.3299 32.9508C66.3299 28.4471 69.3324 25.5209 73.3743 25.5209C77.5085 25.5209 80.1877 28.4928 80.1877 32.6765Z" fill="black"/>
<path id="Vector_9" d="M90.1421 34.0253L88.7332 29.956C88.4098 29.0415 88.202 28.1956 87.9941 27.3726H87.9479C87.74 28.2185 87.5091 29.0644 87.2319 29.9331L85.823 34.0253H90.1421ZM85.4535 35.4655L83.9753 39.9235H82.0583L86.9086 25.7723H89.1258L93.9991 39.9235H92.0359L90.5116 35.4655H85.4535Z" fill="black"/>
<path id="Vector_10" d="M107.095 39.2834C106.263 39.5806 104.624 40.0607 102.707 40.0607C100.536 40.0607 98.7571 39.512 97.3483 38.186C96.1242 37.0201 95.362 35.1226 95.362 32.9051C95.3851 28.6757 98.3183 25.5895 103.099 25.5895C104.762 25.5895 106.056 25.9553 106.656 26.2296L106.217 27.7156C105.455 27.3727 104.508 27.0983 103.053 27.0983C99.5655 27.0983 97.3021 29.2473 97.3021 32.7908C97.3021 36.38 99.4962 38.5061 102.822 38.5061C104.023 38.5061 104.855 38.3461 105.293 38.1174V33.8881H102.383V32.425H107.095V39.2834Z" fill="black"/>
<path id="Vector_11" d="M113.931 34.7797H114.601V39.3519H116.818V39.9235H113.931V34.7797Z" fill="black"/>
<path id="Vector_12" d="M117.581 34.7797H118.25V39.3519H120.468V39.9235H117.581V34.7797Z" fill="black"/>
<path id="Vector_13" d="M121.83 37.3174C121.969 37.3631 122.154 37.3631 122.385 37.3631C123.193 37.3631 123.678 36.9745 123.678 36.2658C123.678 35.58 123.193 35.2599 122.454 35.2599C122.154 35.2599 121.946 35.2828 121.83 35.3056V37.3174ZM121.16 34.8484C121.484 34.8027 121.9 34.757 122.454 34.757C123.124 34.757 123.609 34.917 123.909 35.1913C124.186 35.4428 124.371 35.8086 124.371 36.2658C124.371 36.723 124.232 37.0888 123.978 37.3631C123.632 37.7289 123.054 37.9347 122.385 37.9347C122.177 37.9347 121.992 37.9347 121.853 37.889V39.9465H121.184V34.8484H121.16Z" fill="black"/>
</g>
</svg>
