<svg width="165" height="41" viewBox="0 0 165 41" fill="none" xmlns="http://www.w3.org/2000/svg">
<g id="Frame" clip-path="url(#clip0_1141_881)">
<g id="XMLID 2">
<path id="XMLID 11" d="M120.803 16.5883L118.982 16.9075H113.303V15.9499C113.303 14.1411 113.517 12.0131 116.303 12.0131C116.732 12.0131 117.16 12.0131 117.589 12.1195L118.339 14.5667H119.089C120.16 14.5667 120.696 13.8219 120.696 12.9707C120.696 10.9491 118.124 10.8427 116.41 10.8427C112.982 10.8427 110.517 12.7579 110.517 16.4819V17.0139H108.589V17.5459L110.517 18.3971V27.2283L108.589 28.1858V28.6114H115.124V28.1858L113.517 27.3347V18.2907H118.017V27.3347L116.41 28.2922V28.7178H122.946V28.2922L121.017 27.4411L120.803 16.5883ZM90.1602 21.6955L88.553 20.8443C87.4816 20.3123 86.8387 19.8867 86.8387 19.0355C86.8387 18.1843 87.4816 17.6523 88.9816 17.6523C89.5173 17.6523 90.2673 17.7587 90.5887 17.8651L91.4459 19.7803H92.4102V17.2267C91.3388 16.9075 89.8388 16.5883 88.6602 16.5883C85.6602 16.5883 84.1602 17.9715 84.1602 19.9931C84.1602 21.3763 84.9102 22.2275 86.8387 23.2915L88.553 24.2491C89.5173 24.7811 90.053 25.2067 90.053 26.1643C90.053 27.2283 89.4102 27.7603 87.803 27.7603C87.1602 27.7603 86.303 27.5475 85.9816 27.4411L85.0173 25.5259H84.053V28.1858C85.2316 28.505 86.7316 28.9306 88.0173 28.9306C91.1245 28.9306 92.7316 27.4411 92.7316 25.3131C92.8387 23.6107 91.9816 22.6531 90.1602 21.6955ZM106.017 20.2059C106.017 17.7587 104.517 16.4819 102.696 16.4819C102.053 16.4819 101.624 16.5883 100.339 17.0139C99.6959 17.2267 99.053 17.4395 98.4102 17.7587V10.7363L93.4816 11.8003V12.2259L95.4102 12.8643V27.1219L93.4816 28.0794V28.505H100.017V28.0794L98.4102 27.2283V18.5035C99.1602 18.3971 99.803 18.3971 100.339 18.3971C102.374 18.3971 103.017 19.4611 103.017 21.2699V27.2283L101.41 28.1858V28.6114H107.732V28.1858L106.017 27.1219V20.2059ZM77.4102 16.4819C80.5173 16.4819 82.2316 18.5035 82.2316 22.1211V22.3339H74.7316C74.7316 25.5259 76.4459 27.1219 78.9102 27.1219C79.6602 27.1219 80.4102 26.9091 81.5887 26.3771L82.0173 27.1219C80.7316 28.0794 79.0173 28.8242 77.5173 28.8242C73.9816 28.8242 71.7316 26.5899 71.7316 22.8659C71.6245 19.2483 73.9816 16.4819 77.4102 16.4819ZM79.2316 20.8443C79.2316 18.2907 78.3745 17.5459 77.1959 17.5459C75.803 17.5459 74.9459 18.7163 74.8387 21.2699L79.2316 20.8443ZM66.1602 17.8651V16.4819L61.2316 17.4395V17.8651L63.1602 18.5035V27.1219L61.2316 28.0794V28.505H68.5173V28.0794L66.053 27.2283V18.7163C66.5887 18.5035 67.553 18.2907 68.4102 18.2907C68.8387 18.2907 69.2673 18.2907 69.4816 18.2907L70.2316 19.7803H71.1959V16.8011C70.553 16.5883 70.2316 16.4819 69.6959 16.4819C68.7316 16.4819 67.7673 16.8011 66.1602 17.8651ZM48.803 12.2259L50.7316 13.0771V27.1219L48.803 28.0794V28.505H56.4102V28.0794L53.8387 27.2283V20.7379H58.2316L58.9816 22.4403H59.5173V17.6523H58.9816L58.2316 19.4611H53.8387V12.8643H58.9816L60.1602 15.4179H60.803V11.8003H48.803V12.2259ZM129.053 16.4819C132.16 16.4819 133.874 18.5035 133.874 22.1211V22.3339H126.374C126.374 25.5259 128.089 27.2283 130.553 27.2283C131.303 27.2283 131.946 27.1219 133.232 26.4835L133.66 27.2283C132.267 28.1858 130.66 28.9306 129.16 28.9306C125.624 28.9306 123.374 26.6963 123.374 22.9723C123.267 19.2483 125.624 16.4819 129.053 16.4819ZM130.767 20.8443C130.66 18.2907 129.91 17.5459 128.732 17.5459C127.339 17.5459 126.482 18.7163 126.374 21.2699L130.767 20.8443ZM162.267 21.6955L160.66 20.8443C159.589 20.3123 158.946 19.8867 158.946 19.0355C158.946 18.1843 159.589 17.6523 161.089 17.6523C161.624 17.6523 162.374 17.7587 162.696 17.8651L163.553 19.6739H164.517V17.1203C163.446 16.8011 161.946 16.4819 160.767 16.4819C157.767 16.4819 156.267 17.8651 156.267 19.8867C156.267 21.2699 156.91 22.1211 158.946 23.1851L160.66 24.1427C161.732 24.6747 162.16 25.2067 162.16 26.0579C162.16 27.1219 161.517 27.6539 159.91 27.6539C159.267 27.6539 158.41 27.4411 158.089 27.3347L157.124 25.4195H156.16V28.0794C157.339 28.505 158.839 28.8242 160.124 28.8242C163.232 28.8242 164.839 27.3347 164.839 25.2067C164.946 23.6107 164.089 22.6531 162.267 21.6955ZM153.267 26.6963L155.196 27.3347V27.7603L152.303 28.505C152.089 28.6114 151.767 28.6114 151.66 28.6114C150.803 28.6114 150.482 27.973 150.374 27.4411L148.553 28.1858C147.589 28.6114 146.946 28.7178 146.089 28.7178C143.732 28.7178 141.803 26.1643 141.803 23.0787C141.803 19.1419 144.696 16.4819 148.446 16.4819C149.196 16.4819 149.732 16.5883 150.267 16.6947V12.7579L148.232 12.1195V11.6939L153.16 10.7363V26.6963H153.267ZM150.267 17.7587C149.839 17.6523 149.303 17.6523 148.874 17.6523C146.41 17.6523 144.91 19.3547 144.91 22.5467C144.91 25.1003 146.089 27.0155 148.66 27.0155C149.196 27.0155 149.624 26.9091 150.267 26.8027V17.7587ZM139.339 27.1219L141.267 27.973V28.3986H134.303V27.973L136.232 27.0155V12.8643L134.196 12.2259V11.8003L139.232 10.8427V27.1219H139.339Z" fill="#00447C"/>
<path id="XMLID 3" d="M19.553 0.628418C8.73158 0.628418 -0.0541306 9.35317 -0.0541306 20.0995C-0.0541306 30.8459 8.73158 39.5706 19.553 39.5706C30.3744 39.5706 39.1602 30.8459 39.1602 20.0995C39.053 9.35317 30.2673 0.628418 19.553 0.628418ZM25.553 37.1234C23.7316 32.9739 23.1959 26.5899 23.1959 22.2275C23.1959 21.6955 23.1959 20.8443 23.1959 20.6315C24.3744 19.3547 24.5887 18.6099 24.2673 17.0139C23.9459 15.6307 23.4102 13.9284 22.2316 13.5028C21.4816 13.29 21.1602 13.1836 21.1602 13.1836C21.3744 13.1836 21.5887 13.0772 21.5887 13.0772C22.3387 12.758 22.9816 11.8004 23.4102 9.88517C23.9459 7.65078 24.6959 5.94839 26.4102 5.94839C28.0173 5.94839 30.9102 8.82118 30.9102 13.3964C30.9102 17.5459 29.303 19.5675 28.6602 24.1427C28.2316 27.1219 28.4459 29.9947 28.7673 30.8459C28.2316 29.9947 27.803 28.9307 27.4816 27.4411C26.4102 22.1211 28.3387 15.9499 28.3387 15.9499C28.3387 15.9499 26.0887 21.1635 26.8387 26.8027C26.9459 27.8667 27.1602 28.7179 27.2673 29.3563C26.7316 28.6115 26.0887 27.4411 25.6602 26.1643C24.803 23.1851 25.0173 19.8867 25.0173 19.8867C25.0173 19.8867 24.4816 23.1851 25.0173 25.6323C25.7673 29.1435 27.1602 31.3779 30.1602 32.9739C28.9816 29.3563 28.7673 25.8451 30.4816 20.7379C31.2316 18.5035 32.303 16.1627 32.303 13.29C32.303 8.50198 28.553 5.2036 26.4102 5.2036C24.3744 5.2036 23.4102 6.79959 22.9816 8.28918C22.3387 7.01239 21.1602 6.05479 19.553 6.05479C17.8387 6.05479 16.7673 7.01239 16.1244 8.28918C15.6959 6.90599 14.7316 5.2036 12.6959 5.2036C10.553 5.2036 6.80301 8.39558 6.80301 13.29C6.80301 16.1627 7.98158 18.6099 8.62444 20.7379C10.2316 25.8451 10.1244 29.3563 8.94587 32.9739C11.9459 31.3779 13.3387 29.2499 14.0887 25.6323C14.6244 23.1851 14.0887 19.8867 14.0887 19.8867C14.0887 19.8867 14.303 23.0787 13.4459 26.1643C13.0173 27.5475 12.3744 28.6115 11.8387 29.3563C12.053 28.7179 12.1602 27.8667 12.2673 26.8027C12.9102 21.2699 10.7673 15.9499 10.7673 15.9499C10.7673 15.9499 12.5887 22.1211 11.6244 27.4411C11.303 29.0371 10.8744 30.1011 10.3387 30.8459C10.6602 29.9947 10.8744 27.2283 10.4459 24.1427C9.69587 19.6739 8.08873 17.5459 8.08873 13.3964C8.08873 8.82118 10.9816 5.94839 12.5887 5.94839C14.303 5.94839 15.053 7.65078 15.5887 9.99157C16.1244 12.226 16.9816 13.1836 17.9459 13.1836C18.2673 13.1836 18.6959 12.758 18.6959 12.1196C18.803 12.758 19.2316 13.1836 19.9816 13.29C20.5173 13.3964 20.6244 13.3964 21.2673 13.6092C22.3387 13.822 22.7673 14.6731 23.0887 15.6307C23.4102 16.6947 23.4102 17.0139 23.4102 17.2267C23.5173 17.8651 23.5173 18.7163 23.1959 19.3547C22.4459 20.5251 21.803 21.1635 21.1602 21.6955C21.1602 21.6955 21.9102 21.5891 22.553 21.1635C22.553 23.6107 22.553 27.0155 22.9816 30.4203C22.9816 30.8459 23.0887 31.2715 23.0887 31.6971C23.0887 31.6971 23.5173 33.5059 23.5173 33.7187L22.8744 31.6971L19.3387 22.9723C20.0887 22.6531 20.303 22.1211 20.303 22.1211C20.303 22.1211 19.553 22.4403 18.803 22.4403C18.4816 22.4403 18.1602 22.3339 18.053 22.0147C17.9459 21.8019 17.8387 21.4827 17.8387 21.4827C17.8387 21.4827 17.7316 21.6955 17.8387 22.1211C17.9459 22.6531 18.1602 22.9723 18.6959 22.9723L24.2673 37.3362C22.7673 37.7618 21.1602 37.9746 19.4459 37.9746C17.7316 37.9746 16.1244 37.7618 14.6244 37.3362C14.9459 36.485 15.5887 34.2507 16.0173 30.2075C16.1244 29.4627 16.1244 28.7179 16.2316 27.9731C16.2316 28.2923 16.4459 29.2499 16.9816 30.4203C18.3744 32.9739 19.553 33.8251 19.553 33.8251C19.553 33.8251 18.6959 32.9739 17.5173 30.2075C16.2316 27.5475 16.3387 25.7387 16.4459 24.9939C16.553 21.9083 16.4459 19.2483 16.4459 18.1843C16.4459 17.8651 16.3387 17.6523 16.3387 17.6523C16.3387 17.6523 14.5173 18.9291 13.8744 18.1843C13.2316 17.3331 13.9816 15.2051 14.7316 14.4604C14.7316 14.4604 13.9816 15.0987 13.3387 15.8435C12.803 16.6947 12.2673 18.2907 13.1244 18.9291C13.8744 19.4611 14.9459 19.0355 15.803 18.5035L16.1244 18.1843L15.9102 18.7163C15.9102 18.7163 15.9102 19.9931 15.9102 22.1211C15.9102 26.3771 15.3744 32.6547 13.553 37.017C6.58873 34.5699 1.98158 27.8667 1.98158 19.9931C1.98158 9.99157 9.37444 1.90521 19.4459 1.90521C29.5173 1.90521 36.9102 9.99157 36.9102 19.9931C37.0173 27.8667 32.4102 34.5699 25.553 37.1234ZM19.4459 7.65078C18.2673 7.65078 17.303 8.71478 17.303 9.88517C17.303 10.7364 17.7316 11.3748 17.9459 11.8004C18.2673 12.226 17.9459 12.4388 17.7316 12.4388C17.5173 12.4388 16.9816 12.226 16.553 10.5236C16.4459 10.3108 16.4459 10.098 16.4459 9.77877C16.4459 7.86358 17.7316 6.48039 19.553 6.48039C21.4816 6.48039 22.6602 8.07638 22.6602 9.77877C22.6602 9.99157 22.6602 10.3108 22.553 10.5236C22.1244 12.226 21.5887 12.3324 21.3744 12.4388H21.2673C20.9459 12.3324 20.9459 12.1196 21.1602 11.8004C21.3744 11.4812 21.6959 10.7364 21.6959 9.99157C21.6959 8.71478 20.6244 7.65078 19.4459 7.65078ZM20.8387 9.88517C20.8387 10.9492 20.1959 12.1196 19.7673 12.226C19.7673 12.226 19.6602 12.226 19.4459 12.226C19.2316 12.226 19.1244 12.226 19.1244 12.226C18.803 12.1196 18.053 10.9492 18.053 9.88517C18.053 9.03398 18.6959 8.39558 19.4459 8.39558C20.1959 8.39558 20.8387 9.03398 20.8387 9.88517ZM13.4459 8.82118L14.5173 9.24678L12.2673 6.90599V10.4172L12.9102 9.03398L15.053 14.2476C15.2673 14.0348 15.3744 13.822 15.4816 13.7156L13.4459 8.82118ZM12.9102 8.39558L12.4816 7.54438L13.8744 8.92758L12.9102 8.39558ZM18.5887 21.2699L16.3387 15.5243C16.7673 15.4179 16.8744 15.0987 16.8744 14.7795C16.8744 14.1412 16.4459 13.9284 16.4459 13.9284C16.4459 13.9284 16.6602 14.2476 16.6602 14.4604C16.6602 14.6731 16.553 14.9923 16.0173 15.0987C14.9459 15.4179 14.9459 16.2691 14.9459 16.2691C14.9459 16.2691 15.053 15.8435 15.803 15.6307L18.1602 21.3763C18.053 21.3763 18.3744 21.2699 18.5887 21.2699Z" fill="#00447C"/>
</g>
</g>
<defs>
<clipPath id="clip0_1141_881">
<rect width="166.289" height="40.0758" fill="white" transform="translate(-0.644531 0.330688)"/>
</clipPath>
</defs>
</svg>
