<svg width="165" height="9" viewBox="0 0 165 9" fill="none" xmlns="http://www.w3.org/2000/svg">
<g id="Group">
<path id="Vector" d="M88.0386 0.147339C88.1405 0.17475 88.2279 0.188455 88.3298 0.215866C89.145 0.407742 89.6253 0.914844 89.9019 1.65494C89.5089 1.83311 89.1158 1.99757 88.7374 2.17575C88.65 2.03869 88.5918 1.91534 88.5045 1.79199C88.3443 1.559 88.1405 1.42195 87.8494 1.36712C87.1798 1.27119 86.6266 1.79199 86.7722 2.40874C86.8159 2.58691 86.8887 2.75137 86.976 2.91584C87.107 3.12142 87.2526 3.327 87.4127 3.51888C87.9659 4.19045 89.1595 5.60211 89.1595 5.60211C89.1595 5.60211 89.6108 4.60161 89.8291 4.10821C90.2804 4.10821 90.7316 4.10821 91.212 4.10821C91.0373 4.54679 90.8627 4.95795 90.6734 5.36911C90.4842 5.78028 90.2658 6.17774 90.0475 6.6026C90.557 7.17823 91.605 8.39802 91.605 8.39802C91.605 8.39802 90.4842 8.41172 90.0038 8.41172C89.9019 8.41172 89.8437 8.38431 89.7855 8.31579C89.6399 8.12391 89.4798 7.94574 89.3342 7.75386C89.3051 7.71275 89.2614 7.67163 89.2177 7.61681C89.1741 7.67163 89.1158 7.71275 89.0722 7.75386C88.6209 8.20614 88.0678 8.48025 87.4127 8.53507C87.3836 8.53507 87.3545 8.54878 87.3108 8.56248C87.1216 8.56248 86.9323 8.56248 86.7577 8.56248C86.6412 8.53507 86.5247 8.52137 86.4083 8.49396C85.3165 8.28838 84.5159 7.46605 84.3995 6.45185C84.283 5.42394 84.8362 4.47826 85.826 4.01228C85.8843 3.98486 85.9279 3.95745 86.0007 3.93004C85.957 3.87522 85.9279 3.8204 85.8988 3.76558C85.7096 3.47776 85.5349 3.17624 85.4621 2.84731C85.1419 1.65494 85.8406 0.421448 87.3399 0.188455C87.3836 0.17475 87.4418 0.161044 87.4855 0.147339C87.6747 0.147339 87.864 0.147339 88.0386 0.147339ZM88.3298 6.68484C87.8057 6.05439 87.2817 5.42394 86.7577 4.80719C86.4665 4.88942 86.2627 5.04018 86.1026 5.27318C85.8697 5.61581 85.8115 5.99957 85.8843 6.38332C86.0298 7.06859 86.6266 7.45234 87.3545 7.3427C87.8057 7.27417 88.0823 7.02747 88.3298 6.68484Z" fill="black"/>
<path id="Vector_2" d="M161.929 8.58998C161.841 8.57628 161.754 8.56257 161.652 8.54887C160.677 8.39811 159.949 7.91842 159.41 7.15091C159.061 6.65752 158.857 6.1093 158.755 5.51996C158.58 4.58799 158.61 3.64232 158.886 2.72405C159.032 2.21695 159.279 1.73726 159.629 1.3261C160.167 0.68194 160.866 0.298187 161.739 0.188544C161.783 0.188544 161.841 0.161133 161.885 0.161133C162.103 0.161133 162.322 0.161133 162.554 0.161133C162.598 0.174838 162.642 0.188544 162.685 0.202249C162.977 0.243366 163.253 0.325598 163.515 0.435242C164.185 0.750467 164.636 1.24386 164.956 1.86061C164.956 1.87431 164.956 1.88802 164.956 1.91543C164.578 2.0799 164.214 2.25807 163.835 2.42253C163.763 2.31289 163.704 2.20324 163.632 2.10731C163.399 1.80579 163.122 1.54538 162.729 1.43574C162.03 1.24386 161.419 1.40833 160.924 1.91543C160.648 2.18954 160.473 2.53218 160.356 2.88852C160.08 3.76567 160.065 4.65652 160.269 5.54738C160.371 5.98595 160.56 6.39711 160.866 6.75345C161.681 7.69913 162.977 7.42502 163.588 6.8768C163.646 6.82198 163.675 6.76716 163.675 6.67122C163.675 6.24635 163.675 5.83519 163.675 5.41032C163.675 5.3692 163.661 5.32809 163.661 5.27327C163.049 5.25956 162.438 5.27327 161.841 5.27327C161.812 4.93063 161.827 4.20424 161.856 4.08089C161.914 4.08089 161.987 4.08089 162.045 4.08089C162.773 4.08089 163.515 4.08089 164.243 4.08089C164.491 4.08089 164.738 4.08089 165 4.08089C165 5.17733 165 6.27376 165 7.3702C164.461 7.95953 163.806 8.34329 162.991 8.50775C162.831 8.53516 162.671 8.56257 162.511 8.58998C162.322 8.58998 162.118 8.58998 161.929 8.58998Z" fill="black"/>
<path id="Vector_3" d="M100.834 8.58989C100.688 8.56248 100.543 8.54878 100.412 8.52137C99.6257 8.39802 98.956 8.08279 98.3738 7.54828C98.6067 7.20564 98.8542 6.8493 99.1016 6.49296C99.1453 6.53408 99.189 6.57519 99.2326 6.61631C99.8149 7.15082 100.514 7.42493 101.329 7.38381C101.576 7.37011 101.795 7.31529 102.013 7.19194C102.61 6.8493 102.726 6.0818 102.246 5.60211C102.057 5.42394 101.838 5.28688 101.605 5.17724C101.314 5.04018 101.023 4.93054 100.732 4.80719C100.368 4.65643 100.004 4.49197 99.6693 4.27268C99.189 3.95745 98.8396 3.55999 98.7086 3.01178C98.3883 1.73717 99.1598 0.558502 100.528 0.243277C100.688 0.202161 100.848 0.17475 101.023 0.147339C101.271 0.147339 101.518 0.147339 101.751 0.147339C101.867 0.17475 101.984 0.188455 102.1 0.215866C102.697 0.311804 103.236 0.531091 103.702 0.914844C103.745 0.95596 103.789 0.997077 103.847 1.0519C103.614 1.39453 103.396 1.72347 103.163 2.0661C103.119 2.02498 103.076 1.99757 103.046 1.97016C102.552 1.559 101.955 1.36712 101.3 1.36712C101.081 1.36712 100.892 1.40824 100.688 1.49047C100.077 1.75088 99.8731 2.5732 100.455 3.01178C100.63 3.13513 100.819 3.25848 101.009 3.34071C101.445 3.54629 101.897 3.72446 102.333 3.93004C102.653 4.0808 102.959 4.25897 103.236 4.49197C103.731 4.90313 103.978 5.42394 104.007 6.04068C104.036 6.50667 103.949 6.94524 103.716 7.3564C103.367 7.97315 102.799 8.32949 102.086 8.49396C101.926 8.53507 101.765 8.54878 101.605 8.56248C101.562 8.56248 101.533 8.57619 101.489 8.58989C101.271 8.58989 101.052 8.58989 100.834 8.58989Z" fill="black"/>
<path id="Vector_4" d="M3.33348 0.147339C3.50816 0.17475 3.69739 0.202161 3.87207 0.243277C4.39611 0.352921 4.87648 0.558502 5.28407 0.887433C5.32774 0.914844 5.35685 0.95596 5.40052 0.983371C5.41508 0.997077 5.41508 1.01078 5.44419 1.03819C5.22584 1.36712 5.00749 1.70976 4.77459 2.0524C4.73092 2.01128 4.7018 1.99757 4.67269 1.97016C4.17776 1.54529 3.58094 1.36712 2.91133 1.35342C2.67843 1.35342 2.44552 1.40824 2.24173 1.50418C1.70313 1.76458 1.49934 2.54579 2.06705 2.98437C2.27084 3.14883 2.50375 3.27218 2.75121 3.38182C3.04234 3.50517 3.31892 3.62852 3.61005 3.75187C3.95941 3.90263 4.29422 4.0671 4.61446 4.28638C5.03661 4.5879 5.38597 4.94424 5.53153 5.43764C5.779 6.31479 5.66254 7.12341 4.99294 7.80868C4.59991 8.21985 4.09042 8.41172 3.52271 8.52137C3.3917 8.54878 3.26069 8.56248 3.12968 8.58989C2.91133 8.58989 2.69298 8.58989 2.46008 8.58989C2.31451 8.56248 2.16894 8.54878 2.00882 8.52137C1.28099 8.41172 0.640493 8.12391 0.101897 7.65792C0.0727833 7.61681 0.0291133 7.57569 0 7.54828C0.145567 7.27417 0.640493 6.5889 0.756946 6.49296C0.771503 6.50667 0.78606 6.53408 0.800616 6.54778C0.815173 6.56149 0.82973 6.57519 0.844286 6.5889C1.23732 6.95895 1.70313 7.20564 2.24173 7.31529C2.63476 7.39752 3.04234 7.41123 3.42082 7.27417C3.75562 7.15082 4.00308 6.93153 4.09042 6.5889C4.20688 6.17773 4.10498 5.82139 3.77018 5.53358C3.56638 5.35541 3.33348 5.23206 3.10057 5.13612C2.75121 4.98536 2.38729 4.8346 2.03793 4.68384C1.73224 4.54679 1.44111 4.39603 1.16453 4.20415C0.0291133 3.42294 0.0582266 2.01128 0.61138 1.24377C1.01897 0.668146 1.60123 0.352921 2.29995 0.215866C2.41641 0.188455 2.53286 0.17475 2.63476 0.147339C2.86766 0.147339 3.10057 0.147339 3.33348 0.147339Z" fill="black"/>
<path id="Vector_5" d="M48.9396 0.284424H50.8611L52.7098 5.51991L54.6167 0.284424H56.5236V8.41175H55.1262V2.61435L53.0155 8.41175H52.4477L50.3516 2.58694V8.41175H48.9396V0.284424Z" fill="black"/>
<path id="Vector_6" d="M72.3174 3.02551C72.3174 4.82093 72.3174 8.39805 72.3174 8.39805L70.92 8.41175C70.92 8.41175 70.8763 0.517416 70.9055 0.284424C71.3713 0.284424 71.8516 0.284424 72.3466 0.284424C72.856 1.16157 74.9376 4.65646 75.4471 5.53361C75.4617 5.53361 75.4762 5.53361 75.4762 5.53361C75.4762 5.53361 75.4908 5.53361 75.4908 5.5199C75.4908 3.77931 75.4908 0.311835 75.4908 0.311835H76.9319L76.9464 8.41175C76.9464 8.41175 76.0731 8.41175 75.7237 8.42546C75.6072 8.42546 75.549 8.38434 75.4908 8.2884C74.5009 6.61634 72.332 3.02551 72.3174 3.02551Z" fill="black"/>
<path id="Vector_7" d="M43.0586 5.13615L44.7326 8.42546C44.7326 8.42546 43.6699 8.42546 43.1168 8.42546C42.6364 7.42496 41.6466 5.36914 41.6466 5.36914H40.5694V8.39805L39.1574 8.42546L39.1428 0.298129C39.1428 0.298129 41.2244 0.284424 42.1852 0.284424C43.4516 0.298129 44.4414 1.10675 44.6161 2.28542C44.6889 2.77881 44.6744 3.27221 44.5142 3.7382C44.2813 4.39606 43.8446 4.84834 43.1459 5.08133C43.1168 5.10874 43.0586 5.13615 43.0586 5.13615ZM40.5694 4.14936C40.5694 4.14936 41.5301 4.14936 41.9377 4.14936C42.5054 4.14936 42.9276 3.86154 43.1022 3.34074C43.2041 3.03922 43.2187 2.7377 43.1459 2.43618C43.0003 1.79202 42.5636 1.46309 41.8649 1.46309C41.501 1.46309 40.5839 1.4768 40.5839 1.4768V4.14936H40.5694Z" fill="black"/>
<path id="Vector_8" d="M15.7939 8.42542H14.3819L14.3674 4.86201H11.1649V8.39801L9.73834 8.41172V0.298096H11.1795L11.1649 3.60111L14.3674 3.61481V0.311801L15.7939 0.298096V8.42542Z" fill="black"/>
<path id="Vector_9" d="M28.5019 8.41175L31.0929 0.284424H32.8106L35.4017 8.41175H33.8442L33.3638 6.82192H30.5107C30.5107 6.82192 30.1904 7.87724 30.0303 8.41175C29.5354 8.41175 28.5019 8.41175 28.5019 8.41175ZM33.0872 5.61584L31.9372 1.79202L30.8164 5.61584H33.0872Z" fill="black"/>
<path id="Vector_10" d="M67.179 8.42546C66.655 8.42546 66.1455 8.42546 65.6214 8.42546C65.4613 7.90465 65.3012 7.37014 65.1411 6.83563C64.1803 6.83563 62.288 6.83563 62.288 6.83563L61.8222 8.42546H60.2646L62.8557 0.284424H64.5734C64.5734 0.284424 66.3056 5.69807 67.179 8.42546ZM63.7 1.79202C63.3215 3.06663 62.5791 5.60214 62.5791 5.60214H64.8645C64.8499 5.61584 63.7145 1.79202 63.7 1.79202Z" fill="black"/>
<path id="Vector_11" d="M25.0521 1.46306H21.7623L21.7478 3.66964H24.9648V4.86201H21.7478V7.24676H25.0521V8.39802L20.3212 8.41172V0.298096H25.0521V1.46306Z" fill="black"/>
<path id="Vector_12" d="M150.487 8.42537H149.06V0.284335C149.06 0.284335 149.963 0.284335 150.341 0.27063C150.472 0.27063 150.545 0.311746 150.618 0.42139C151.346 1.65488 153.325 4.99901 153.587 5.43758C153.602 5.46499 153.616 5.4924 153.646 5.53352C153.704 5.4787 153.675 5.42388 153.675 5.36905C153.675 4.68378 153.675 0.284335 153.675 0.284335H155.101C155.101 0.284335 155.145 8.16497 155.116 8.41166C154.665 8.41166 154.199 8.41166 153.733 8.41166C153.194 7.5071 151.069 3.91628 150.516 3.02542C150.487 3.28583 150.487 8.42537 150.487 8.42537Z" fill="black"/>
<path id="Vector_13" d="M127.749 5.36906C127.385 5.36906 127.036 5.36906 126.657 5.36906C126.657 6.38326 126.657 7.39746 126.657 8.41167C126.177 8.41167 125.711 8.41167 125.245 8.41167C125.216 8.28832 125.202 0.476212 125.245 0.284335C125.289 0.284335 125.347 0.27063 125.391 0.27063C126.352 0.27063 127.298 0.27063 128.259 0.27063C129.583 0.27063 130.573 1.12037 130.733 2.34015C130.792 2.81984 130.777 3.28583 130.602 3.75181C130.369 4.39597 129.933 4.84825 129.234 5.08124C129.205 5.09495 129.19 5.09495 129.147 5.12236C129.7 6.21879 130.253 7.30153 130.821 8.41167C130.268 8.41167 129.743 8.41167 129.205 8.41167C128.725 7.41117 128.244 6.39697 127.749 5.36906ZM126.657 4.14927C126.73 4.14927 126.774 4.14927 126.832 4.14927C127.225 4.14927 127.618 4.14927 128.026 4.14927C128.608 4.14927 129.03 3.84775 129.205 3.32695C129.278 3.08025 129.292 2.83355 129.263 2.57315C129.176 1.92899 128.754 1.4493 127.953 1.463C127.575 1.463 127.211 1.463 126.832 1.463C126.774 1.463 126.716 1.463 126.657 1.47671C126.657 2.36756 126.657 3.24471 126.657 4.14927Z" fill="black"/>
<path id="Vector_14" d="M120.908 3.68334C120.908 4.0945 120.908 4.46455 120.908 4.87572C119.83 4.87572 118.768 4.87572 117.691 4.87572C117.691 5.67063 117.691 6.45184 117.691 7.24676C118.782 7.24676 119.874 7.24676 120.98 7.24676C120.98 7.64422 120.98 8.02797 120.98 8.41172C120.864 8.45284 116.672 8.46654 116.264 8.42543C116.235 8.31578 116.22 0.544794 116.25 0.298096C117.822 0.298096 119.394 0.298096 120.98 0.298096C120.98 0.695554 120.98 1.07931 120.98 1.47676C119.874 1.47676 118.782 1.47676 117.691 1.47676C117.691 2.21686 117.691 2.92954 117.691 3.66964C117.865 3.69705 118.04 3.68334 118.215 3.68334C118.389 3.68334 118.564 3.68334 118.739 3.68334C118.913 3.68334 119.103 3.68334 119.277 3.68334C119.452 3.68334 119.641 3.68334 119.816 3.68334C119.991 3.68334 120.165 3.68334 120.34 3.68334C120.529 3.68334 120.704 3.68334 120.908 3.68334Z" fill="black"/>
<path id="Vector_15" d="M110.572 8.42542C110.092 8.42542 109.626 8.42542 109.175 8.42542C109.175 8.41172 109.16 8.41172 109.16 8.41172L109.146 8.39801C109.146 8.38431 109.146 8.3706 109.146 8.3706C109.146 8.3569 109.146 8.34319 109.146 8.31578C109.146 6.05438 109.131 1.49047 109.131 1.49047L107.181 1.47676L107.166 0.298096C107.166 0.298096 110.762 0.298096 112.567 0.298096C112.567 0.681848 112.567 1.47676 112.567 1.47676H110.587C110.587 1.46306 110.572 8.01426 110.572 8.42542Z" fill="black"/>
<path id="Vector_16" d="M134.984 0.284424C135.464 0.284424 135.915 0.284424 136.396 0.284424C136.41 0.668176 136.396 7.23309 136.396 7.23309H139.424V8.39805L134.984 8.41175C134.984 8.41175 134.984 2.9981 134.984 0.284424Z" fill="black"/>
<path id="Vector_17" d="M144.548 0.298096H143.121V8.42542H144.548V0.298096Z" fill="black"/>
</g>
</svg>
